<svg xmlns="http://www.w3.org/2000/svg" xmlns:xlink="http://www.w3.org/1999/xlink" viewBox="0 0 381.23 380.49"><defs><style>.cls-1{fill:url(#linear-gradient);}.cls-2{fill:url(#linear-gradient-2);}.cls-3{fill:url(#linear-gradient-3);}.cls-4{fill:url(#linear-gradient-4);}</style><linearGradient id="linear-gradient" y1="130.31" x2="361.71" y2="130.31" gradientUnits="userSpaceOnUse"><stop offset="0" stop-color="#446ab3"/><stop offset="0.33" stop-color="#466ab2"/><stop offset="0.45" stop-color="#4d69ae"/><stop offset="0.54" stop-color="#5868a7"/><stop offset="0.61" stop-color="#69659d"/><stop offset="0.67" stop-color="#7f6390"/><stop offset="0.72" stop-color="#9b6080"/><stop offset="0.77" stop-color="#ba5c6d"/><stop offset="0.78" stop-color="#c85a65"/><stop offset="0.84" stop-color="#d4565d"/><stop offset="0.99" stop-color="#f04d48"/></linearGradient><linearGradient id="linear-gradient-2" x1="77.08" y1="189.63" x2="301.75" y2="189.63" xlink:href="#linear-gradient"/><linearGradient id="linear-gradient-3" x1="15.97" y1="250.19" x2="381.23" y2="250.19" xlink:href="#linear-gradient"/><linearGradient id="linear-gradient-4" x1="65.58" y1="119.88" x2="99.05" y2="119.88" gradientUnits="userSpaceOnUse"><stop offset="0" stop-color="#e3ddee"/><stop offset="1" stop-color="#f59597"/></linearGradient></defs><g id="Layer_2" data-name="Layer 2"><g id="Layer_1-2" data-name="Layer 1"><path class="cls-1" d="M361.71,107.45h-26.6c-1.31,7-36.1-93.36-151-87.06C-6.78,30.87,19.29,230.18,23,234.68l107.34.16S162,236.5,175.59,218c-.84,2.66,7,20.4,12.84,24.24,5.21,3.44-30.81,18.35-55.91,18.34H10.79C.15,255.35-44.3,24.32,177.8,1,271.94-8.92,339.7,58.58,361.71,107.45Z"/><path class="cls-2" d="M301.75,207.27l-.27,53.18-59.89.17c3.86-.42-61,4.56-65.53-56.29-3.26-43.54-11.27-51.62-24-56.39a62.1,62.1,0,0,0-22.39-3.79l-26.21.25c-.17,15-.83,85.16.38,87.11l-26.36-.17-.36-88.89h24.74V119l24.57-.37a73.77,73.77,0,0,1,9.75.44c8.37,1,16.43.45,26.09,5.61,16.2,8.63,37.59,27.47,37.8,49.74.33,34,11.05,56,34.94,60s39.27.66,39.27.66l-.16-25.53s-31.59,7.86-33.22-26.18h41.89C293.79,183.3,301.81,190.09,301.75,207.27Z"/><path class="cls-3" d="M16,274.58H40.79C47.2,285.2,86.29,359.43,193,360.76c128.8,1.6,190.58-147.64,157.6-216.66L231,144.76c-2.7-2.28-30,8-31.2,16.36,2.39.28-7.64-20.18-16.69-24.54,2.94-3.72,27.6-15.6,50.51-16l130.91-.66c52,91.24-22.19,257.24-159.93,260.51C133,382.1,68.17,362.94,16,274.58Z"/><polygon class="cls-4" points="87.69 126.23 87.69 132.44 90.61 132.44 90.61 136.5 86.7 136.5 86.7 133.73 80.08 133.73 80.08 140.16 73.14 140.16 73.14 134.22 68.11 134.22 68.11 128.98 65.58 128.98 65.58 125.38 69.09 125.38 69.09 127.92 74.33 127.92 74.33 132.61 79.25 132.61 79.25 125.16 86.95 125.16 86.95 125.63 87.31 125.63 87.31 125.8 87.34 125.8 87.34 125.63 87.31 125.63 87.31 125.44 87.2 125.44 87.2 125.16 86.95 125.16 86.95 114.42 79.64 114.42 79.64 117.85 76.22 117.85 76.22 121.07 76.03 121.07 76.03 121.37 75.97 121.37 75.97 121.54 76.03 121.54 76.03 121.37 76.22 121.37 76.22 121.07 78.17 121.07 78.17 123.66 75.75 123.66 75.75 121.78 71.95 121.78 71.95 117.53 75.97 117.53 75.97 114.91 73.84 114.91 73.84 112.29 76.22 112.29 76.22 114.01 79.25 114.01 79.25 106.73 72.61 106.73 72.61 99.61 79.81 99.61 79.81 105.91 87.25 105.91 87.25 102.72 90.94 102.72 90.94 106.73 87.58 106.73 87.58 113.95 99.05 113.95 99.05 126.23 87.69 126.23"/></g></g></svg>